HIERARCHY
ROOT pelvis
{
  OFFSET 0 100 0
  CHANNELS 6 Xposition Yposition Zposition Zrotation Xrotation Yrotation
  JOINT pelvis_right_femur
  {
    OFFSET -10.78128 -3.44521 -0.5502486
    CHANNELS 3 Zrotation Xrotation Yrotation
    JOINT right_femur_tibia
    {
      OFFSET -0.8047443 -44.0398 -0.1307829
      CHANNELS 3 Zrotation Xrotation Yrotation
      JOINT right_tibia_foot
      {
        OFFSET 3.006224 -47.83518 -5
        CHANNELS 3 Zrotation Xrotation Yrotation
        End Site
        {
          OFFSET 0 -5 15
        }
      }
    }
  }
  JOINT pelvis_left_femur
  {
    OFFSET 10.78128 -3.44521 -0.5502486
    CHANNELS 3 Zrotation Xrotation Yrotation
    JOINT left_femur_tibia
    {
      OFFSET 0.8047443 -44.0398 -0.1307829
      CHANNELS 3 Zrotation Xrotation Yrotation
      JOINT left_tibia_foot
      {
        OFFSET -4.370144 -48.10324 -4.275266
        CHANNELS 3 Zrotation Xrotation Yrotation
        End Site
        {
          OFFSET 0 -5 15
        }
      }
    }
  }
  JOINT pelvis_spine1
  {
    OFFSET 0 6.468898 -3.129235
    CHANNELS 3 Zrotation Xrotation Yrotation
    JOINT spine1
    {
      OFFSET 0 23.15396 4.99043
      CHANNELS 3 Zrotation Xrotation Yrotation
      JOINT spine2
      {
        OFFSET 0 20.79997 -5.064912
        CHANNELS 3 Zrotation Xrotation Yrotation
        JOINT neck
        {
          OFFSET 0 14.38658 9.616178
          CHANNELS 3 Zrotation Xrotation Yrotation
          End Site
          {
            OFFSET 0 20 0
          }
        }
      }
      JOINT right_manubrium
      {
        OFFSET -5.722621 16.35077 3.967754
        CHANNELS 3 Zrotation Xrotation Yrotation
        JOINT right_clavicle
        {
          OFFSET -13.16364 1.694482 -4.693211
          CHANNELS 3 Zrotation Xrotation Yrotation
          JOINT right_humerus
          {
            OFFSET -28.5034 -0.3100689 -2.792744
            CHANNELS 3 Zrotation Xrotation Yrotation
            JOINT right_radius
            {
              OFFSET -25.15693 0.02248979 -1.271978
              CHANNELS 3 Zrotation Xrotation Yrotation
              End Site
              {
                OFFSET -15 0 0
              }
            }
          }
        }
      }
      JOINT left_manubrium
      {
        OFFSET 5.722621 16.35077 3.967754
        CHANNELS 3 Zrotation Xrotation Yrotation
        JOINT left_clavicle
        {
          OFFSET 13.16364 1.694482 -4.693211
          CHANNELS 3 Zrotation Xrotation Yrotation
          JOINT left_humerus
          {
            OFFSET 29.39168 -1.063119 -2.237045
            CHANNELS 3 Zrotation Xrotation Yrotation
            JOINT left_radius
            {
              OFFSET 24.59957 -0.9528479 0.9047498
              CHANNELS 3 Zrotation Xrotation Yrotation
              End Site
              {
                OFFSET 15 -0 -0
              }
            }
          }
        }
      }
    }
  }
}
MOTION
Frames: 21
Frame Time: 0.0416666666667
0 103.5113 0 2.704562 -0.2602392 0.20746 3.065828 -15.53443 11.9963 -0 37.37565 -0 -3.70684 -17.2082 -3.96922 -8.690415 9.039334 -21.32425 -0 4.540229 -0 21.91107 -8.230187 28.38274 -2.255379 -2.131559 4.90888 2.143037 10.69882 -6.988564 1.89269 21.41223 5.804018 3.412179 -24.70334 8.728941 6.109963 -18.91272 10.81706 86.17102 35.75316 -18.89885 -0 0 13.73621 -9.364196 9.104743 4.79685 6.138413 -20.59151 -2.88394 -92.35825 22.48534 20.47852 0 0 -14.96212 13.05451 14.43057 -0.1999051
0.4393902 103.8067 1.547344 2.17796 0.8954543 0.2980109 4.145118 -18.21318 12.39708 -0 37.37712 -0 -3.987326 -16.63039 -3.384197 -8.642792 8.918126 -21.606 -0 4.813878 -0 22.15191 -9.081917 29.1091 -2.234662 -1.97857 4.838658 2.175346 10.66301 -6.983057 1.847214 21.41661 5.883239 3.447958 -24.73475 8.708171 6.073498 -18.80014 10.87881 86.15536 35.73946 -18.75943 -0 0 13.50457 -9.587318 9.156414 5.039975 6.028478 -20.52043 -2.881344 -92.15674 22.39859 20.26286 0 0 -15.05451 12.87591 14.231 -0.109341
0.6656382 102.4799 4.445907 2.255676 -7.369802 0.7696572 0.5735353 -11.85036 -5.709217 -0 21.53959 -0 -12.08653 -7.645886 1.064247 -6.659798 12.67758 -18.30804 -0 5.749287 -0 6.557715 -17.35474 22.20528 -2.221224 -1.758637 4.657057 2.272003 10.56984 -7.025183 1.764211 21.39763 6.064004 3.515773 -24.85764 8.727061 6.01723 -18.61176 10.99689 86.13308 35.71665 -18.53839 -0 0 13.13405 -9.980082 9.272731 5.446018 5.890886 -20.39197 -2.793156 -91.78304 22.09886 19.78616 0 0 -15.11951 12.74143 13.92176 -0.2280117
0.8991679 101.7157 7.396434 2.153333 -6.695336 0.9009809 0.5366503 -12.13696 -4.415697 -0 23.46896 -0 -11.28353 -8.551272 0.5828726 -6.683547 12.71823 -19.12161 -0 5.198117 -0 5.325912 -17.9968 22.22405 -2.288517 -2.12069 4.702833 2.328571 10.5133 -7.12316 1.845753 21.36678 5.964967 3.392137 -25.00583 8.890696 6.098488 -18.8203 10.8994 86.12256 35.70627 -18.83906 -0 0 13.62405 -9.364168 9.164492 4.980891 6.077143 -20.41205 -2.612245 -92.24372 22.43555 20.21108 0 0 -14.87576 12.95726 14.40163 -0.3121648
1.137702 101.0108 10.20554 2.099136 -6.207831 1.051075 0.5956768 -12.44655 -3.470422 -0 24.70055 -0 -10.77704 -9.220707 0.2576303 -6.719956 12.73045 -19.62182 -0 4.951557 -0 4.968953 -18.22988 22.36621 -2.358877 -2.343567 4.630352 2.421337 10.41429 -7.24431 1.861935 21.31959 6.004709 3.341584 -25.17941 9.048222 6.142864 -18.92029 10.88917 86.07215 35.6851 -18.932 -0 0 13.92779 -9.121967 9.161876 4.804211 6.225 -20.389 -2.351856 -92.41904 22.39756 20.26714 0 0 -14.57761 13.22479 14.67548 -0.6808945
1.371559 100.3553 12.9556 1.96023 -5.643445 1.185794 0.7729657 -13.43442 -2.842001 -0 25.21004 -0 -10.43676 -9.395132 0.107556 -6.710394 12.8002 -19.80371 -0 4.909182 -0 4.769754 -18.58513 22.37645 -2.394703 -2.432502 4.515301 2.540487 10.27545 -7.36167 1.836142 21.2639 6.115139 3.32574 -25.38593 9.182484 6.151869 -18.91748 10.92909 86.01456 35.62789 -18.94153 -0 0 14.03815 -9.031584 9.196504 4.819445 6.282887 -20.32463 -2.085667 -92.45593 22.36259 20.19022 0 0 -14.42161 13.2528 14.78827 -0.8423215
1.598387 99.72208 15.68324 1.818512 -5.152865 1.317033 0.9730619 -14.49151 -2.436326 -0 25.33092 -0 -10.21753 -9.366079 0.04473893 -6.686226 12.86572 -19.82846 -0 4.942208 -0 4.707888 -18.89988 22.34463 -2.410374 -2.450523 4.371456 2.667403 10.11584 -7.483004 1.781505 21.18912 6.283887 3.351166 -25.60225 9.302173 6.143344 -18.8565 11.00078 85.95431 35.55746 -18.90545 -0 0 14.05598 -9.062836 9.270604 4.935039 6.32937 -20.2693 -1.800307 -92.39706 22.23989 20.00033 0 0 -14.32772 13.23097 14.81764 -1.006894
1.816786 99.10605 18.41494 1.652695 -4.604416 1.43564 1.239105 -15.82987 -2.104945 -0 25.12824 -0 -10.03605 -9.201723 0.04011526 -6.661458 12.93233 -19.7322 -0 5.03615 -0 4.853493 -19.2064 22.31042 -2.412959 -2.454737 4.227697 2.797662 9.942766 -7.611063 1.717349 21.09643 6.473539 3.391763 -25.83059 9.419037 6.127865 -18.77945 11.08008 85.89657 35.4656 -18.88226 -0 0 14.06424 -9.103006 9.353942 5.06143 6.386679 -20.23299 -1.496722 -92.33477 22.12249 19.8052 0 0 -14.27698 13.16491 14.83861 -1.125698
2.026732 98.49655 21.16837 1.479496 -4.053552 1.544386 1.533374 -17.26242 -1.838008 -0 24.72584 -0 -9.891282 -8.946018 0.07332636 -6.636274 12.99453 -19.56372 -0 5.172273 -0 5.104342 -19.49674 22.27196 -2.402661 -2.440724 4.084718 2.924556 9.763207 -7.74264 1.64318 20.98497 6.685018 3.454473 -26.05888 9.526576 6.105843 -18.6849 11.16733 85.84343 35.35889 -18.86703 -0 0 14.05822 -9.174145 9.452059 5.201207 6.46246 -20.2251 -1.182445 -92.25454 21.97778 19.58614 0 0 -14.26997 13.08235 14.84401 -1.2366
2.228614 97.88889 23.96093 1.296106 -3.491329 1.642786 1.855768 -18.79184 -1.613117 -0 24.16172 -0 -9.775708 -8.602092 0.1380466 -6.610341 13.05636 -19.33679 -0 5.354841 -0 5.43343 -19.78371 22.22847 -2.384277 -2.421681 3.952325 3.040879 9.586942 -7.872889 1.565676 20.86049 6.903085 3.532306 -26.27514 9.622685 6.081274 -18.58634 11.25494 85.79507 35.24284 -18.86495 -0 0 14.05844 -9.259181 9.55699 5.33339 6.561153 -20.24782 -0.8679276 -92.1731 21.81634 19.36528 0 0 -14.29339 13.00079 14.84908 -1.346328
2.423194 97.2786 26.80909 1.106767 -2.935547 1.732471 2.193324 -20.36589 -1.43068 -0 23.47513 -0 -9.692888 -8.172669 0.2291348 -6.582394 13.12137 -19.06434 -0 5.585616 -0 5.799137 -20.07028 22.17344 -2.358471 -2.394033 3.830726 3.144323 9.418176 -7.998666 1.48599 20.72595 7.124435 3.624959 -26.47445 9.70453 6.054125 -18.48284 11.34198 85.75374 35.1225 -18.87311 -0 0 14.0562 -9.364146 9.668269 5.46073 6.679171 -20.29934 -0.5620555 -92.08345 21.63401 19.13586 0 0 -14.35161 12.92481 14.84753 -1.460225
2.611486 96.66304 29.7302 0.9120643 -2.389356 1.81507 2.541976 -21.97413 -1.288465 -0 22.68024 -0 -9.644226 -7.652629 0.3445701 -6.551734 13.19461 -18.75003 -0 5.872181 -0 6.181886 -20.36157 22.10124 -2.32859 -2.360147 3.723215 3.230284 9.264655 -8.114891 1.40771 20.58828 7.339818 3.728331 -26.64688 9.769218 6.026407 -18.37937 11.42468 85.72037 35.00589 -18.88807 -0 0 14.05183 -9.488085 9.781722 5.578998 6.812769 -20.37628 -0.2772002 -91.98576 21.43173 18.90103 0 0 -14.43904 12.86556 14.83952 -1.586191
2.794722 96.04028 32.74274 0.7138833 -1.859086 1.893148 2.896006 -23.60053 -1.189185 -0 21.78585 -0 -9.632993 -7.035938 0.4832924 -6.518007 13.28163 -18.39531 -0 6.223788 -0 6.564374 -20.65974 22.00512 -2.296426 -2.319124 3.629804 3.297596 9.130425 -8.218487 1.332832 20.45279 7.543868 3.839097 -26.78848 9.815644 5.998704 -18.27713 11.50113 85.69663 34.89884 -18.90691 -0 0 14.03879 -9.63114 9.894476 5.689174 6.955307 -20.47293 -0.02272473 -91.87704 21.21198 18.65958 0 0 -14.55512 12.82614 14.82127 -1.725607
2.974348 95.40946 35.86717 0.5135588 -1.349006 1.970129 3.251155 -25.23566 -1.13692 -0 20.7937 -0 -9.663495 -6.312806 0.6457359 -6.481078 13.38912 -17.99846 -0 6.654709 -0 6.933785 -20.96616 21.87721 -2.264693 -2.271622 3.551127 3.344026 9.020828 -8.305696 1.263696 20.32621 7.73013 3.953421 -26.89268 9.842373 5.972318 -18.17896 11.56885 85.68341 34.80844 -18.92528 -0 0 14.01338 -9.79366 10.00306 5.791023 7.100468 -20.58359 0.1910919 -91.75535 20.97578 18.41184 0 0 -14.69483 12.8136 14.79049 -1.883821
3.152032 94.77096 39.12676 0.3129383 -0.8659618 2.050676 3.601726 -26.86456 -1.139463 -0 19.70456 -0 -9.742369 -5.470948 0.8332858 -6.440751 13.52528 -17.55598 -0 7.184924 -0 7.27501 -21.28002 21.70666 -2.235279 -2.217605 3.486587 3.368938 8.939101 -8.374094 1.20177 20.21395 7.894358 4.068058 -26.95597 9.849042 5.947867 -18.08639 11.62628 85.68162 34.73978 -18.93962 -0 0 13.97105 -9.975784 10.10472 5.885707 7.241777 -20.70242 0.3567368 -91.61877 20.72473 18.15754 0 0 -14.85416 12.83146 14.74451 -2.063397
3.329676 94.12714 42.54842 0.1141083 -0.4196277 2.140971 3.940611 -28.46467 -1.20769 -0 18.52139 -0 -9.878645 -4.495943 1.047912 -6.396419 13.70034 -17.06272 -0 7.843111 -0 7.567563 -21.59752 21.47787 -2.209984 -2.157167 3.435601 3.371375 8.888394 -8.421407 1.148159 20.12107 8.033084 4.180458 -26.97427 9.835108 5.925892 -18.001 11.67218 85.69192 34.69738 -18.94606 -0 0 13.90847 -10.17896 10.19712 5.974433 7.373817 -20.82467 0.4675637 -91.46535 20.45837 17.89607 0 0 -15.02803 12.88429 14.68107 -2.268801
3.509395 93.48367 46.16365 -0.08057614 -0.02408161 2.249001 4.25897 -29.9991 -1.354834 -0 17.25537 -0 -10.08346 -3.373912 1.291145 -6.346508 13.92653 -16.51237 -0 8.670296 -0 7.780565 -21.90914 21.16775 -2.18979 -2.089844 3.397128 3.351084 8.870523 -8.446264 1.10332 20.05123 8.144523 4.288985 -26.94536 9.80043 5.906229 -17.92347 11.70597 85.71514 34.68373 -18.94164 -0 0 13.82241 -10.40502 10.27862 6.058899 7.492057 -20.94658 0.5190756 -91.29327 20.17579 17.62644 0 0 -15.21248 12.97456 14.59784 -2.50311
3.693467 92.85184 50.00918 -0.2692788 0.3021541 2.38465 4.548307 -31.41091 -1.592484 -0 15.93462 -0 -10.36857 -2.096545 1.562304 -6.287393 14.21694 -15.8981 -0 9.726152 -0 7.867671 -22.19481 20.74254 -2.174976 -2.014622 3.370067 3.30795 8.886691 -8.447733 1.067303 20.00699 8.227936 4.392844 -26.86784 9.744835 5.888029 -17.85397 11.72757 85.75253 34.69977 -18.92423 -0 0 13.70976 -10.65663 10.34814 6.14094 7.592882 -21.06559 0.5079024 -91.10073 19.8751 17.34729 0 0 -15.40457 13.10378 14.49239 -2.768969
3.884212 92.25248 54.12708 -0.4525987 0.5373789 2.559225 4.806124 -32.61628 -1.921473 -0 14.61826 -0 -10.74282 -0.6709868 1.855201 -6.21125 14.58145 -15.21405 -0 11.0989 -0 7.760955 -22.41495 20.1538 -2.164742 -1.92964 3.353107 3.242599 8.936981 -8.42559 1.03979 19.98953 8.283693 4.491828 -26.74259 9.668544 5.869375 -17.79186 11.73742 85.80617 34.74411 -18.89319 -0 0 13.56679 -10.9362 10.40505 6.222576 7.672979 -21.17989 0.4320777 -90.88626 19.5551 17.05748 0 0 -15.60322 13.27074 14.36184 -3.066248
4.08385 91.72203 58.56329 -0.6379015 0.6614384 2.783602 5.048286 -33.49902 -2.313315 -0 13.41725 -0 -11.20495 0.8622634 2.152264 -6.101909 15.01633 -14.45856 -0 12.92078 -0 7.365205 -22.49488 19.33489 -2.157062 -1.832097 3.344783 3.156695 9.020318 -8.380306 1.020272 19.99873 8.312932 4.585837 -26.57346 9.572477 5.847097 -17.7358 11.73645 85.87925 34.81296 -18.8498 -0 0 13.38858 -11.24496 10.44893 6.305925 7.728538 -21.28767 0.2908214 -90.64916 19.21675 16.75695 0 0 -15.80925 13.4706 14.20276 -3.390363
4.294548 91.32102 63.36291 -0.8474312 0.6665332 3.063523 5.329551 -33.91009 -2.678994 -0 12.52009 -0 -11.7303 2.398773 2.414933 -5.927705 15.48072 -13.64065 -0 15.38928 -0 6.556566 -22.30022 18.20099 -2.148383 -1.718196 3.343342 3.053946 9.133737 -8.313428 1.008193 20.03295 8.317466 4.674048 -26.36945 9.459214 5.816589 -17.68366 11.72611 85.97617 34.89939 -18.79787 -0 0 13.1685 -11.58056 10.47938 6.39325 7.753978 -21.38587 0.08528879 -90.39056 18.86654 16.44845 0 0 -16.02527 13.69222 14.01115 -3.728199
